<svg width="86" height="21" viewBox="0 0 86 21" fill="none" xmlns="http://www.w3.org/2000/svg">
<path d="M0.66 9.46C0.66 8.31333 0.893333 7.31333 1.36 6.46C1.82667 5.59333 2.47333 4.92667 3.3 4.46C4.12667 3.98 5.07333 3.74 6.14 3.74C7.51333 3.74 8.64667 4.08667 9.54 4.78C10.4467 5.46 11.0533 6.42 11.36 7.66H8.34C8.18 7.18 7.90667 6.80667 7.52 6.54C7.14667 6.26 6.68 6.12 6.12 6.12C5.32 6.12 4.68667 6.41333 4.22 7C3.75333 7.57333 3.52 8.39333 3.52 9.46C3.52 10.5133 3.75333 11.3333 4.22 11.92C4.68667 12.4933 5.32 12.78 6.12 12.78C7.25333 12.78 7.99333 12.2733 8.34 11.26H11.36C11.0533 12.46 10.4467 13.4133 9.54 14.12C8.63333 14.8267 7.5 15.18 6.14 15.18C5.07333 15.18 4.12667 14.9467 3.3 14.48C2.47333 14 1.82667 13.3333 1.36 12.48C0.893333 11.6133 0.66 10.6067 0.66 9.46ZM19.6513 3.76C20.4913 3.76 21.2379 3.94667 21.8913 4.32C22.5446 4.68 23.0513 5.22 23.4113 5.94C23.7846 6.64667 23.9713 7.5 23.9713 8.5V15H21.1713V8.88C21.1713 8 20.9513 7.32667 20.5113 6.86C20.0713 6.38 19.4713 6.14 18.7113 6.14C17.9379 6.14 17.3246 6.38 16.8713 6.86C16.4313 7.32667 16.2113 8 16.2113 8.88V15H13.4113V0.2H16.2113V5.3C16.5713 4.82 17.0513 4.44667 17.6513 4.18C18.2513 3.9 18.9179 3.76 19.6513 3.76ZM25.9139 9.42C25.9139 8.3 26.1339 7.30667 26.5739 6.44C27.0272 5.57333 27.6339 4.90667 28.3939 4.44C29.1672 3.97333 30.0272 3.74 30.9739 3.74C31.8006 3.74 32.5206 3.90667 33.1339 4.24C33.7606 4.57333 34.2606 4.99333 34.6339 5.5V3.92H37.4539V15H34.6339V13.38C34.2739 13.9 33.7739 14.3333 33.1339 14.68C32.5072 15.0133 31.7806 15.18 30.9539 15.18C30.0206 15.18 29.1672 14.94 28.3939 14.46C27.6339 13.98 27.0272 13.3067 26.5739 12.44C26.1339 11.56 25.9139 10.5533 25.9139 9.42ZM34.6339 9.46C34.6339 8.78 34.5006 8.2 34.2339 7.72C33.9672 7.22667 33.6072 6.85333 33.1539 6.6C32.7006 6.33333 32.2139 6.2 31.6939 6.2C31.1739 6.2 30.6939 6.32667 30.2539 6.58C29.8139 6.83333 29.4539 7.20667 29.1739 7.7C28.9072 8.18 28.7739 8.75333 28.7739 9.42C28.7739 10.0867 28.9072 10.6733 29.1739 11.18C29.4539 11.6733 29.8139 12.0533 30.2539 12.32C30.7072 12.5867 31.1872 12.72 31.6939 12.72C32.2139 12.72 32.7006 12.5933 33.1539 12.34C33.6072 12.0733 33.9672 11.7 34.2339 11.22C34.5006 10.7267 34.6339 10.14 34.6339 9.46ZM43.4486 6.22V11.58C43.4486 11.9533 43.5353 12.2267 43.7086 12.4C43.8953 12.56 44.2019 12.64 44.6286 12.64H45.9286V15H44.1686C41.8086 15 40.6286 13.8533 40.6286 11.56V6.22H39.3086V3.92H40.6286V1.18H43.4486V3.92H45.9286V6.22H43.4486ZM47.6425 9.56C47.6425 8.44 47.8625 7.46 48.3025 6.62C48.7558 5.78 49.3758 5.13333 50.1625 4.68C50.9625 4.22667 51.8692 4 52.8825 4C54.0292 4 55.0025 4.28 55.8025 4.84C56.6025 5.4 57.1625 6.11333 57.4825 6.98V4.14H58.3825V15H57.4825V12.14C57.1625 13.02 56.5958 13.7467 55.7825 14.32C54.9825 14.88 54.0158 15.16 52.8825 15.16C51.8692 15.16 50.9625 14.9333 50.1625 14.48C49.3758 14.0133 48.7558 13.36 48.3025 12.52C47.8625 11.6667 47.6425 10.68 47.6425 9.56ZM57.4825 9.56C57.4825 8.61333 57.2825 7.78 56.8825 7.06C56.4958 6.32667 55.9625 5.76667 55.2825 5.38C54.6025 4.98 53.8425 4.78 53.0025 4.78C52.1225 4.78 51.3492 4.97333 50.6825 5.36C50.0158 5.73333 49.4958 6.28 49.1225 7C48.7492 7.72 48.5625 8.57333 48.5625 9.56C48.5625 10.5467 48.7492 11.4 49.1225 12.12C49.4958 12.84 50.0158 13.3933 50.6825 13.78C51.3625 14.1667 52.1358 14.36 53.0025 14.36C53.8425 14.36 54.6025 14.1667 55.2825 13.78C55.9758 13.38 56.5158 12.82 56.9025 12.1C57.2892 11.3667 57.4825 10.52 57.4825 9.56ZM62.5595 7C62.8662 6.12 63.4195 5.4 64.2195 4.84C65.0329 4.28 66.0129 4 67.1595 4C68.1729 4 69.0729 4.22667 69.8595 4.68C70.6595 5.13333 71.2795 5.78 71.7195 6.62C72.1729 7.46 72.3995 8.44 72.3995 9.56C72.3995 10.68 72.1729 11.6667 71.7195 12.52C71.2795 13.36 70.6595 14.0133 69.8595 14.48C69.0729 14.9333 68.1729 15.16 67.1595 15.16C66.0262 15.16 65.0529 14.88 64.2395 14.32C63.4395 13.7467 62.8795 13.0267 62.5595 12.16V20.12H61.6595V4.14H62.5595V7ZM71.4795 9.56C71.4795 8.57333 71.2929 7.72 70.9195 7C70.5462 6.28 70.0195 5.73333 69.3395 5.36C68.6729 4.97333 67.8995 4.78 67.0195 4.78C66.1795 4.78 65.4195 4.98 64.7395 5.38C64.0595 5.76667 63.5262 6.32667 63.1395 7.06C62.7529 7.78 62.5595 8.61333 62.5595 9.56C62.5595 10.52 62.7529 11.3667 63.1395 12.1C63.5262 12.82 64.0595 13.38 64.7395 13.78C65.4195 14.1667 66.1795 14.36 67.0195 14.36C67.8995 14.36 68.6729 14.1667 69.3395 13.78C70.0195 13.3933 70.5462 12.84 70.9195 12.12C71.2929 11.4 71.4795 10.5467 71.4795 9.56ZM76.0166 7C76.3232 6.12 76.8766 5.4 77.6766 4.84C78.4899 4.28 79.4699 4 80.6166 4C81.6299 4 82.5299 4.22667 83.3166 4.68C84.1166 5.13333 84.7366 5.78 85.1766 6.62C85.6299 7.46 85.8566 8.44 85.8566 9.56C85.8566 10.68 85.6299 11.6667 85.1766 12.52C84.7366 13.36 84.1166 14.0133 83.3166 14.48C82.5299 14.9333 81.6299 15.16 80.6166 15.16C79.4832 15.16 78.5099 14.88 77.6966 14.32C76.8966 13.7467 76.3366 13.0267 76.0166 12.16V20.12H75.1166V4.14H76.0166V7ZM84.9366 9.56C84.9366 8.57333 84.7499 7.72 84.3766 7C84.0032 6.28 83.4766 5.73333 82.7966 5.36C82.1299 4.97333 81.3566 4.78 80.4766 4.78C79.6366 4.78 78.8766 4.98 78.1966 5.38C77.5166 5.76667 76.9832 6.32667 76.5966 7.06C76.2099 7.78 76.0166 8.61333 76.0166 9.56C76.0166 10.52 76.2099 11.3667 76.5966 12.1C76.9832 12.82 77.5166 13.38 78.1966 13.78C78.8766 14.1667 79.6366 14.36 80.4766 14.36C81.3566 14.36 82.1299 14.1667 82.7966 13.78C83.4766 13.3933 84.0032 12.84 84.3766 12.12C84.7499 11.4 84.9366 10.5467 84.9366 9.56Z" fill="white"/>
</svg>
