<svg width="145" height="25" viewBox="0 0 145 25" fill="none" xmlns="http://www.w3.org/2000/svg">
<path d="M8.09106 21.6961C7.3345 22.1525 6.40113 21.4753 6.60025 20.6145L7.62475 16.1855C7.70822 15.8247 7.58539 15.4472 7.30553 15.2046L3.86832 12.2246C3.20079 11.6459 3.55674 10.5492 4.4369 10.4728L8.98322 10.0781C9.3524 10.0461 9.67359 9.81252 9.81785 9.47118L11.5789 5.30441C11.923 4.49015 13.077 4.49015 13.4211 5.30441L15.1822 9.47118C15.3264 9.81252 15.6476 10.0461 16.0168 10.0781L20.5631 10.4728C21.4433 10.5492 21.7992 11.6459 21.1317 12.2246L17.6945 15.2046C17.4146 15.4472 17.2918 15.8247 17.3753 16.1855L18.3998 20.6145C18.5989 21.4753 17.6655 22.1525 16.909 21.6961L13.0165 19.3481C12.6989 19.1564 12.3012 19.1564 11.9835 19.3481L8.09106 21.6961Z" fill="#F27F33"/>
<path d="M38.0911 21.6961C37.3345 22.1525 36.4011 21.4753 36.6003 20.6145L37.6247 16.1855C37.7082 15.8247 37.5854 15.4472 37.3055 15.2046L33.8683 12.2246C33.2008 11.6459 33.5567 10.5492 34.4369 10.4728L38.9832 10.0781C39.3524 10.0461 39.6736 9.81252 39.8179 9.47118L41.5789 5.30441C41.923 4.49015 43.077 4.49015 43.4211 5.30441L45.1822 9.47118C45.3264 9.81252 45.6476 10.0461 46.0168 10.0781L50.5631 10.4728C51.4433 10.5492 51.7992 11.6459 51.1317 12.2246L47.6945 15.2046C47.4146 15.4472 47.2918 15.8247 47.3753 16.1855L48.3998 20.6145C48.5989 21.4753 47.6655 22.1525 46.909 21.6961L43.0165 19.3481C42.6989 19.1564 42.3012 19.1564 41.9835 19.3481L38.0911 21.6961Z" fill="#F27F33"/>
<path d="M68.0911 21.6961C67.3345 22.1525 66.4011 21.4753 66.6003 20.6145L67.6247 16.1855C67.7082 15.8247 67.5854 15.4472 67.3055 15.2046L63.8683 12.2246C63.2008 11.6459 63.5567 10.5492 64.4369 10.4728L68.9832 10.0781C69.3524 10.0461 69.6736 9.81252 69.8179 9.47118L71.5789 5.30441C71.923 4.49015 73.077 4.49015 73.4211 5.30441L75.1822 9.47118C75.3264 9.81252 75.6476 10.0461 76.0168 10.0781L80.5631 10.4728C81.4433 10.5492 81.7992 11.6459 81.1317 12.2246L77.6945 15.2046C77.4146 15.4472 77.2918 15.8247 77.3753 16.1855L78.3998 20.6145C78.5989 21.4753 77.6655 22.1525 76.909 21.6961L73.0165 19.3481C72.6989 19.1564 72.3012 19.1564 71.9835 19.3481L68.0911 21.6961Z" fill="#F27F33"/>
<path d="M98.0911 21.6961C97.3345 22.1525 96.4011 21.4753 96.6003 20.6145L97.6247 16.1855C97.7082 15.8247 97.5854 15.4472 97.3055 15.2046L93.8683 12.2246C93.2008 11.6459 93.5567 10.5492 94.4369 10.4728L98.9832 10.0781C99.3524 10.0461 99.6736 9.81252 99.8179 9.47118L101.579 5.30441C101.923 4.49015 103.077 4.49015 103.421 5.30441L105.182 9.47118C105.326 9.81252 105.648 10.0461 106.017 10.0781L110.563 10.4728C111.443 10.5492 111.799 11.6459 111.132 12.2246L107.694 15.2046C107.415 15.4472 107.292 15.8247 107.375 16.1855L108.4 20.6145C108.599 21.4753 107.666 22.1525 106.909 21.6961L103.017 19.3481C102.699 19.1564 102.301 19.1564 101.983 19.3481L98.0911 21.6961Z" fill="#F27F33"/>
<path d="M128.091 21.6961C127.335 22.1525 126.401 21.4753 126.6 20.6145L127.625 16.1855C127.708 15.8247 127.585 15.4472 127.306 15.2046L123.868 12.2246C123.201 11.6459 123.557 10.5492 124.437 10.4728L128.983 10.0781C129.352 10.0461 129.674 9.81252 129.818 9.47118L131.579 5.30441C131.923 4.49015 133.077 4.49015 133.421 5.30441L135.182 9.47118C135.326 9.81252 135.648 10.0461 136.017 10.0781L140.563 10.4728C141.443 10.5492 141.799 11.6459 141.132 12.2246L137.694 15.2046C137.415 15.4472 137.292 15.8247 137.375 16.1855L138.4 20.6145C138.599 21.4753 137.666 22.1525 136.909 21.6961L133.017 19.3481C132.699 19.1564 132.301 19.1564 131.983 19.3481L128.091 21.6961Z" fill="#F27F33"/>
</svg>
